Patient4_TMGait_0pt8_01_left_23_EMG.mot
version=1
nRows=13
nColumns=33
inDegrees=no
endheader
time	1LAddLong	2LGlutMax	3LGlutMed	4LIliopsoas	5LSemiMemb	6LBicFemLong	7LRecFem	8LVastMed	9LVastLat	10LGasMed	11LTibAnt	12lTibPost	13LPeroneusLong	14LSol	15LExtDigLong	16LFlexDigLong	17RAddLong	18RGlutMax	19RGlutMed	20RIliopsoas	21RSemiMemb	22RBicFemLong	23RRecFem	24RVastMed	25RVastLat	26RGasMed	27RTibAnt	28RTibPost	29RPeroneusLong	30RSol	31RExtDigLong	32RFlexDigLong
25.462	-0.005798	0.73456	-0.06134	0.003662	0.039215	-0.006866	0.52429	-0.006104	-0.37827	-0.054932	-0.20203	-0.019226	-0.096283	-0.20081	-0.36575	-0.025635	0.097198	-0.79193	-0.91644	-0.15182	-0.29556	0.094299	1.1278	0.29404	-0.10635	0.015259	-0.79346	-0.005035	0.18219	-0.089569	0.000305	-0.022278
25.463	0.001526	0.73563	0.067291	0.029297	0.055237	-0.10315	0.5806	0.010681	-0.51193	-0.077057	-0.11978	-0.014648	-0.092621	-0.159	-0.34409	-0.006256	0.074921	-0.72586	-0.75333	-0.0737	-0.2179	0.035095	1.0875	0.23315	-0.095825	0.019836	-0.94193	-0.002594	0.17624	-0.060883	0.000153	-0.023346
25.464	0.001373	0.77637	0.049133	0.024109	-0.001831	-0.10513	0.70313	0.042572	-0.87509	-0.11169	-0.042877	-0.00473	-0.043945	-0.07843	-0.056915	0.001221	0.028839	-0.65338	-0.51956	-0.013885	-0.1709	-0.06485	1.0808	0.23682	-0.08728	0.00885	-0.79895	0.010223	0.041809	0.097046	0.001984	-0.032043
25.465	0.000458	0.77438	0.004272	0.012665	-0.055084	-0.024872	0.69839	0.072174	-0.98023	-0.13092	-0.028076	-0.008087	-0.072479	-0.16083	-0.06012	0.002747	-0.03479	-0.63202	-0.66986	-0.004578	-0.19684	-0.02182	1.0269	0.23895	-0.080872	0.001526	-0.21149	-0.010529	-0.06134	0.22736	0.001678	-0.034027
25.466	-0.001984	0.78552	-0.028381	-0.010223	-0.10437	-0.083923	0.61035	0.041351	-0.96939	-0.11719	-0.018005	-0.002899	-0.052795	-0.13367	-0.092468	0.005035	-0.022125	-0.56992	-1.0164	0.093231	-0.22034	-0.050354	0.905	0.19272	-0.048981	-0.005798	0.045319	-0.006714	-0.046844	0.15076	0.003967	-0.041656
25.467	0.003815	0.78293	-0.032196	0.000916	-0.10574	-0.18326	0.55466	0.041809	-0.8638	-0.11643	-0.012665	0.001526	-0.002136	-0.10849	-0.018768	0.021057	-0.022583	-0.49744	-1.0936	0.12131	-0.22781	-0.13046	0.88913	0.17517	-0.042419	-0.007019	-0.0383	-0.000916	-0.1152	-0.027771	-0.001373	-0.040283
25.468	-0.007477	0.80673	-0.041046	0.008087	-0.14893	-0.072174	0.47089	0.008087	-0.81741	-0.10635	-0.013123	0.000916	0.053558	-0.08316	0.040131	0.02243	0.004578	-0.4866	-0.85113	0.088196	-0.20599	-0.18692	0.92163	0.103	-0.053253	0.015411	-0.22675	-0.005798	-0.087585	-0.063629	-0.001526	-0.037537
25.469	-0.002136	0.79208	-0.039673	0.00473	-0.14496	-0.026398	0.40405	-0.017548	-0.78705	-0.089569	0.016785	0.007629	0.068817	-0.032806	0.065765	0.033875	0.00473	-0.44907	-0.87936	0.069885	-0.22705	-0.16327	0.85846	0.14114	-0.034485	0.012207	-0.43945	-0.009308	0.009766	0.012512	0.002747	-0.035248
25.47	0.019073	0.79926	-0.065002	0.006866	-0.058289	-0.055237	0.39749	-0.038757	-0.66055	-0.072021	0.043945	0.005188	-0.006866	0.010223	0.049591	0.035095	0.034027	-0.31433	-1.1166	0.036774	-0.26886	-0.19989	0.87143	0.089722	-0.029907	0.009155	-0.35477	-0.003052	-0.015411	0.050049	-0.000763	-0.030212
25.471	0.028992	0.84473	0.042572	-0.000305	-0.020294	-0.1503	0.36667	-0.040436	-0.53772	-0.067902	0.045319	0.012207	-0.037842	-0.05661	0.038147	0.045929	0.085907	-0.20187	-1.0155	-0.081177	-0.31632	-0.19455	0.87204	0.082397	-0.057068	0.009613	0.067902	-0.001678	-0.033722	-0.019989	0.000916	-0.031128
25.472	0.020599	0.86945	0.017242	0.022278	0.071106	-0.12955	0.42343	-0.031128	-0.54321	-0.059509	0.032196	0.011139	-0.00946	-0.074921	0.045624	0.040283	0.10376	-0.11459	-1.0318	-0.13519	-0.34821	-0.14069	0.86243	0.032654	-0.022583	0.01297	-0.011139	-0.009308	-0.058594	-0.015411	0.001373	-0.02594
25.473	0.02243	0.91339	0.002594	0.009003	0.046539	0.047913	0.4509	0.008392	-0.52368	-0.050812	0.029602	0.019684	-0.023193	-0.065155	0.045776	0.053864	0.062866	-0.028076	-1.098	-0.18921	-0.36789	-0.01236	0.85678	0.014343	-0.041809	0.003815	-0.10437	-0.001526	-0.11566	-0.017395	0	-0.031433
25.474	0.022278	0.94574	-0.00885	-0.007019	0.007935	0.23773	0.31601	0.031281	-0.55435	-0.041351	0.038452	0.019531	0.009155	-0.02655	0.037231	0.043793	0.02243	0.084686	-1.1406	-0.19318	-0.4126	-0.018311	0.97549	-0.084686	-0.034943	0.007324	0.069275	-0.013428	-0.16861	0.005188	-0.000305	-0.023041
